PathFileType	4	(X/Y/Z)	Patient4_TMGait_0pt6_02_right_47.trc.trc
DataRate	CameraRate	NumFrames	NumMarkers	Units	OrigDataRate	OrigDataStartFrame	OrigNumFrames
84.848484848485	84.848484848485	4	33	mm	84.848484848485	89	       141
Frame#	Time	Sacral			L.Shoulder			Chest			R.Shoulder			Neck			R.ASIS			L.ASIS			R.Thigh.Superior			R.Thigh.Lateral			R.Thigh.Inferior			R.Patella			L.Thigh.Superior			L.Thigh.Lateral			L.Thigh.Inferior			L.Patella			L.Shank.Superior			L.Shank.Lateral			L.Shank.Inferior			R.Shank.Superior			R.Shank.Lateral			R.Shank.Inferior			R.Heel			R.Midfoot.Superior			R.Midfoot.Lateral			R.Toe			L.Heel			L.Midfoot.Lateral			L.Midfoot.Superior			L.Toe			L.Elbow			L.Wrist			R.Elbow			R.Wrist			
		X1	Y1	Z1	X2	Y2	Z2	X3	Y3	Z3	X4	Y4	Z4	X5	Y5	Z5	X6	Y6	Z6	X7	Y7	Z7	X8	Y8	Z8	X9	Y9	Z9	X10	Y10	Z10	X11	Y11	Z11	X12	Y12	Z12	X13	Y13	Z13	X14	Y14	Z14	X15	Y15	Z15	X16	Y16	Z16	X17	Y17	Z17	X18	Y18	Z18	X19	Y19	Z19	X20	Y20	Z20	X21	Y21	Z21	X22	Y22	Z22	X23	Y23	Z23	X24	Y24	Z24	X25	Y25	Z25	X26	Y26	Z26	X27	Y27	Z27	X28	Y28	Z28	X29	Y29	Z29	X30	Y30	Z30	X31	Y31	Z31	X32	Y32	Z32	X33	Y33	Z33	

89	57.807142857143	891.631555094861	1016.773045247471	472.334529497291	1081.824400573298	1434.404226982109	289.080464080160	1191.390986231194	1356.790073763303	440.945300455934	1124.023266524955	1434.968187665678	619.083889308798	1092.803009245864	1493.249026260158	440.757730936135	1114.664148700429	938.470522001571	581.513227824147	1098.355622259745	957.962592013754	309.502995990652	1144.392988481572	731.886016722318	565.823657992346	1057.330080853947	628.073588580304	630.214573235984	1135.852288719499	564.152330259963	557.167964956305	1121.331554510810	456.178075416445	576.398764829650	1159.733370177136	761.490459635435	343.728072260905	1085.423349784850	638.170626092636	281.971125959312	1176.986939013179	568.301977044803	347.206224194056	1184.550186264200	496.888574720750	355.501347635294	1158.555549094878	423.416998120790	346.807865843180	1072.976977590523	307.403164471571	293.748790252668	1126.582487434647	196.589602386936	363.621933410930	1042.422743827690	393.025659517757	581.311715370126	922.450184361818	354.712112042989	643.798762130137	904.715661341024	247.250081553461	591.998259711731	701.205185540426	183.365395336536	566.589213176613	870.627546182888	128.286113791805	604.653351527318	761.954737040513	124.457657422172	638.054061289944	937.118145291012	30.336139647340	627.033136288831	1000.252487501477	39.387939470802	400.558066126603	1076.501578575683	36.873622847433	322.320130588163	1159.011616836802	97.201316276294	351.766345124232	1288.404025298368	42.756031893190	327.148334389816	957.593636020078	1102.526235722038	177.293917438114	958.014258093810	845.002986256942	219.749685346015	1181.374411085851	1093.522412020642	737.851984096834	1422.293071899409	1074.683366965191	660.908788048430	
90	57.818928571429	890.808427821795	1016.940185374496	470.180696801719	1083.275625645795	1434.291991334082	287.298180092165	1191.640060583039	1356.601883694010	439.987337273599	1123.282048948883	1435.063977719966	617.663806574346	1093.291855800704	1493.365490314535	438.963005632966	1113.669435689003	938.862217933761	580.206418468002	1098.231629968823	957.953315581082	308.315346402178	1149.441782877651	734.698017627029	563.502175069452	1066.568986524319	628.718158457849	628.361608657644	1146.399413109438	566.677240177146	554.484734898476	1133.951115626508	457.317451560831	574.015102101630	1158.713122670416	760.669690104716	342.285430647057	1083.404776822870	637.992790427366	281.036488715454	1174.209769727562	567.601438837430	346.640203612771	1181.193355094923	496.176757455483	355.087653789817	1154.614334420853	422.731700338884	346.340721714812	1068.146969435925	307.336691727645	293.395638066192	1120.694293078698	196.204676001597	363.519686051140	1053.277675067088	394.685168948305	579.445425647878	932.336832474352	360.239801664500	642.517442492240	911.180540509911	253.283142331934	591.419062586431	706.535122718113	198.596700878539	566.843014198023	872.718532843635	134.013590833048	604.584364073374	764.035525399228	136.359650957781	638.268522956568	933.169826989399	29.982883802993	627.027579923725	993.217574996667	39.501006356101	400.503975461732	1069.450036283267	36.875374909054	322.289231444848	1152.089635741434	97.046632240179	351.751033311094	1281.412740403350	42.272532636380	327.044411906630	966.266170221374	1100.247851693037	172.725392384143	976.276997351379	842.460751256319	213.101876479853	1170.168178143777	1091.392753527037	736.286225071565	1411.034268968630	1056.467827853091	663.611080784917	
91	57.830714285714	889.819273367002	1016.983458101738	468.194848546407	1084.486113420597	1434.042490049762	285.706838337156	1191.686179107659	1356.266750006112	439.191457616565	1122.391678054684	1434.998438816002	616.447067291749	1093.670725210485	1493.360917361330	437.363472671738	1112.506849361526	939.207177328939	579.031583732561	1097.920232633364	957.841337612857	307.196008979811	1154.280531399685	737.834807993283	560.886220256664	1076.078434740000	629.771106327484	626.426709460184	1156.939163343403	569.791928662533	551.449794067884	1146.956638309676	459.122340274862	571.221088003873	1157.747502638011	759.928640178003	340.973602640071	1081.452703922431	637.785441631158	280.267581436361	1171.580862561376	566.916285623056	346.148805464450	1178.036949018539	495.473295245676	354.796107657983	1150.832769739516	422.014476015838	346.000556480872	1063.447325775478	307.289184817786	293.111325665880	1114.858184106854	195.803954175456	363.476913415172	1064.699797090392	396.778611411495	577.355258991304	942.994377767945	365.947288555656	641.090692352620	918.642549778391	259.536304976503	590.705958141823	713.266812540077	213.444474420940	567.008872235107	876.105438243508	140.131377060263	604.428885681195	767.628040450973	148.218291538380	638.400730617458	930.733400920942	30.327041805981	626.984011694860	986.182045436808	39.612698108092	400.436403593503	1062.400137266534	36.891833275098	322.245473415190	1145.156978964579	96.917474698361	351.736725493748	1274.408194954747	41.862977909254	326.931830052124	975.532609936168	1097.865414077156	168.174023610705	995.245044001013	840.187595492340	206.447142928908	1158.835348348153	1089.391020411158	734.739386344796	1398.497644085894	1037.360437418283	666.643725746215	
92	57.842500000000	888.687104592951	1016.959636081241	466.361572525221	1085.468555785824	1433.706332362464	284.313458063584	1191.548599969562	1355.834341751851	438.555526084368	1121.365784353774	1434.812643689328	615.434800440559	1093.959219077816	1493.269414563909	435.965567819968	1111.187956063047	939.554193911677	577.990124648096	1097.459883427199	957.671980770211	306.152339836332	1158.807916378237	741.312840849560	558.036828961687	1085.695035307932	631.303123166129	624.451948082060	1167.334556805756	573.545112382946	548.163081346306	1160.204812198744	461.658172887601	568.142590938349	1156.806027049809	759.235118953754	339.799894833500	1079.499389361283	637.547648168263	279.666190535768	1169.003862017885	566.224749488940	345.758321700031	1174.967553366572	494.766865246504	354.654987578423	1147.115958195722	421.272906408659	345.800461480584	1058.816141004528	307.249619420759	292.898224735185	1109.038732647578	195.392116636446	363.500354696338	1076.583720511246	399.357517136717	575.131008360015	954.287099421301	371.766476311196	639.544962618465	927.103555358163	265.872352723253	589.885320352998	721.322286563728	227.391215049341	567.063348788053	880.957352998409	146.457948755608	604.181753091353	772.825227823092	159.606256964367	638.426207588960	930.262514644499	31.514292295584	626.880208318719	979.142319239059	39.711056399816	400.359078579307	1055.348511087037	36.915714947945	322.190115947698	1138.205290107568	96.814149539316	351.726267445267	1267.387195507260	41.537703719324	326.815377763676	985.319603223459	1095.502633047499	163.683436376442	1014.836552905698	838.337841223160	199.853252906412	1147.455884418582	1087.555422882934	733.225623566907	1384.541421569948	1017.584651265493	669.979405955469	
